# xmcd
#
# Track frame offsets: 
#        150
#        24947
#        46801
#        75423
#        94581
#        115244
#        128773
#        153565
#        167810
#        181933
#        192227
#        212472
#        235889
#        252089
#        285847
#        302140
#        315029
#        335259
#
# Disc length: 4786 seconds
#
# Revision: 1
# Processed by: cddbd v1.5.2PL0 Copyright (c) Steve Scherf et al.
# Submitted via: ExactAudioCopy v1.3
#
DISCID=d512b012
DTITLE=Various Artist - Akella Presents - vol.71 - Russia and USA Blues
DTITLE=CD1
DYEAR=2016
DGENRE=Blues
TTITLE0=Ragtime - Don't Waste My Time
TTITLE1=Petrovitch Harmonica Man and The Hot Rod Band - Help Me
TTITLE2=Voronofff - Don't Put Me Down
TTITLE3=Mishouris Blues Band - Material Love Boogie
TTITLE4=Johnny B Moore - Mean Mistreater
TTITLE5=Blues Cousins - You Don't Love Me
TTITLE6=Motor City Josh - Smokestack Lightnin'
TTITLE7=Nickolay Sadikov and Blues Hammer Band - Standin' At The Window
TTITLE8=Arsen Shomakhov - Georgia Slop
TTITLE9=The Black Bread and Dr. Agranovsky - Shirley May
TTITLE10=Jon Zeeman - Better Off Dead
TTITLE11=Svet Boogie Band - Little Tia, Little Tia
TTITLE12=Dr. Nick - Motherless
TTITLE13=Maurice John Vaughn - I Got Money
TTITLE14=Blues League - In From The Storm
TTITLE15=Denis Mazhukov and Off Beat - Rip It Up
TTITLE16=Al Narrator Orchestra - Avalon my home town
TTITLE17=Mishouris Blues Trio - Wang Dang Doodle
EXTD=
EXTT0=
EXTT1=
EXTT2=
EXTT3=
EXTT4=
EXTT5=
EXTT6=
EXTT7=
EXTT8=
EXTT9=
EXTT10=
EXTT11=
EXTT12=
EXTT13=
EXTT14=
EXTT15=
EXTT16=
EXTT17=
PLAYORDER=
